<?xml version="1.0" encoding="UTF-8"?>
<svg xmlns="http://www.w3.org/2000/svg" width="1280" height="1600" viewBox="0 0 1280 1600">
  <defs>
    <linearGradient id="sky" x1="0" y1="0" x2="0" y2="1">
      <stop offset="0%" stop-color="#0B1226"/>
      <stop offset="55%" stop-color="#152048"/>
      <stop offset="100%" stop-color="#1A1730"/>
    </linearGradient>
  </defs>
  <rect width="1280" height="1600" fill="url(#sky)"/>
  <circle cx="0" cy="0" r="0.8" fill="#F5EFE3" opacity="0.35"/>\n  <circle cx="157" cy="97" r="1.3" fill="#F5EFE3" opacity="0.47"/>\n  <circle cx="314" cy="194" r="1.8" fill="#F5EFE3" opacity="0.59"/>\n  <circle cx="471" cy="291" r="2.3" fill="#F5EFE3" opacity="0.71"/>\n  <circle cx="628" cy="388" r="0.8" fill="#F5EFE3" opacity="0.83"/>\n  <circle cx="785" cy="485" r="1.3" fill="#F5EFE3" opacity="0.35"/>\n  <circle cx="942" cy="582" r="1.8" fill="#F5EFE3" opacity="0.47"/>\n  <circle cx="1099" cy="679" r="2.3" fill="#F5EFE3" opacity="0.59"/>\n  <circle cx="1256" cy="776" r="0.8" fill="#F5EFE3" opacity="0.71"/>\n  <circle cx="133" cy="873" r="1.3" fill="#F5EFE3" opacity="0.83"/>\n  <circle cx="290" cy="970" r="1.8" fill="#F5EFE3" opacity="0.35"/>\n  <circle cx="447" cy="1067" r="2.3" fill="#F5EFE3" opacity="0.47"/>\n  <circle cx="604" cy="64" r="0.8" fill="#F5EFE3" opacity="0.59"/>\n  <circle cx="761" cy="161" r="1.3" fill="#F5EFE3" opacity="0.71"/>\n  <circle cx="918" cy="258" r="1.8" fill="#F5EFE3" opacity="0.83"/>\n  <circle cx="1075" cy="355" r="2.3" fill="#F5EFE3" opacity="0.35"/>\n  <circle cx="1232" cy="452" r="0.8" fill="#F5EFE3" opacity="0.47"/>\n  <circle cx="109" cy="549" r="1.3" fill="#F5EFE3" opacity="0.59"/>\n  <circle cx="266" cy="646" r="1.8" fill="#F5EFE3" opacity="0.71"/>\n  <circle cx="423" cy="743" r="2.3" fill="#F5EFE3" opacity="0.83"/>\n  <circle cx="580" cy="840" r="0.8" fill="#F5EFE3" opacity="0.35"/>\n  <circle cx="737" cy="937" r="1.3" fill="#F5EFE3" opacity="0.47"/>\n  <circle cx="894" cy="1034" r="1.8" fill="#F5EFE3" opacity="0.59"/>\n  <circle cx="1051" cy="31" r="2.3" fill="#F5EFE3" opacity="0.71"/>\n  <circle cx="1208" cy="128" r="0.8" fill="#F5EFE3" opacity="0.83"/>\n  <circle cx="85" cy="225" r="1.3" fill="#F5EFE3" opacity="0.35"/>\n  <circle cx="242" cy="322" r="1.8" fill="#F5EFE3" opacity="0.47"/>\n  <circle cx="399" cy="419" r="2.3" fill="#F5EFE3" opacity="0.59"/>\n  <circle cx="556" cy="516" r="0.8" fill="#F5EFE3" opacity="0.71"/>\n  <circle cx="713" cy="613" r="1.3" fill="#F5EFE3" opacity="0.83"/>\n  <circle cx="870" cy="710" r="1.8" fill="#F5EFE3" opacity="0.35"/>\n  <circle cx="1027" cy="807" r="2.3" fill="#F5EFE3" opacity="0.47"/>\n  <circle cx="1184" cy="904" r="0.8" fill="#F5EFE3" opacity="0.59"/>\n  <circle cx="61" cy="1001" r="1.3" fill="#F5EFE3" opacity="0.71"/>\n  <circle cx="218" cy="1098" r="1.8" fill="#F5EFE3" opacity="0.83"/>\n  <circle cx="375" cy="95" r="2.3" fill="#F5EFE3" opacity="0.35"/>\n  <circle cx="532" cy="192" r="0.8" fill="#F5EFE3" opacity="0.47"/>\n  <circle cx="689" cy="289" r="1.3" fill="#F5EFE3" opacity="0.59"/>\n  <circle cx="846" cy="386" r="1.8" fill="#F5EFE3" opacity="0.71"/>\n  <circle cx="1003" cy="483" r="2.3" fill="#F5EFE3" opacity="0.83"/>\n  <circle cx="1160" cy="580" r="0.8" fill="#F5EFE3" opacity="0.35"/>\n  <circle cx="37" cy="677" r="1.3" fill="#F5EFE3" opacity="0.47"/>\n  <circle cx="194" cy="774" r="1.8" fill="#F5EFE3" opacity="0.59"/>\n  <circle cx="351" cy="871" r="2.3" fill="#F5EFE3" opacity="0.71"/>\n  <circle cx="508" cy="968" r="0.8" fill="#F5EFE3" opacity="0.83"/>\n  <circle cx="665" cy="1065" r="1.3" fill="#F5EFE3" opacity="0.35"/>\n  <circle cx="822" cy="62" r="1.8" fill="#F5EFE3" opacity="0.47"/>\n  <circle cx="979" cy="159" r="2.3" fill="#F5EFE3" opacity="0.59"/>\n  <circle cx="1136" cy="256" r="0.8" fill="#F5EFE3" opacity="0.71"/>\n  <circle cx="13" cy="353" r="1.3" fill="#F5EFE3" opacity="0.83"/>\n  <circle cx="170" cy="450" r="1.8" fill="#F5EFE3" opacity="0.35"/>\n  <circle cx="327" cy="547" r="2.3" fill="#F5EFE3" opacity="0.47"/>\n  <circle cx="484" cy="644" r="0.8" fill="#F5EFE3" opacity="0.59"/>\n  <circle cx="641" cy="741" r="1.3" fill="#F5EFE3" opacity="0.71"/>\n  <circle cx="798" cy="838" r="1.8" fill="#F5EFE3" opacity="0.83"/>\n  <circle cx="955" cy="935" r="2.3" fill="#F5EFE3" opacity="0.35"/>\n  <circle cx="1112" cy="1032" r="0.8" fill="#F5EFE3" opacity="0.47"/>\n  <circle cx="1269" cy="29" r="1.3" fill="#F5EFE3" opacity="0.59"/>\n  <circle cx="146" cy="126" r="1.8" fill="#F5EFE3" opacity="0.71"/>\n  <circle cx="303" cy="223" r="2.3" fill="#F5EFE3" opacity="0.83"/>\n  <circle cx="460" cy="320" r="0.8" fill="#F5EFE3" opacity="0.35"/>\n  <circle cx="617" cy="417" r="1.3" fill="#F5EFE3" opacity="0.47"/>\n  <circle cx="774" cy="514" r="1.8" fill="#F5EFE3" opacity="0.59"/>\n  <circle cx="931" cy="611" r="2.3" fill="#F5EFE3" opacity="0.71"/>\n  <circle cx="1088" cy="708" r="0.8" fill="#F5EFE3" opacity="0.83"/>\n  <circle cx="1245" cy="805" r="1.3" fill="#F5EFE3" opacity="0.35"/>\n  <circle cx="122" cy="902" r="1.8" fill="#F5EFE3" opacity="0.47"/>\n  <circle cx="279" cy="999" r="2.3" fill="#F5EFE3" opacity="0.59"/>\n  <circle cx="436" cy="1096" r="0.8" fill="#F5EFE3" opacity="0.71"/>\n  <circle cx="593" cy="93" r="1.3" fill="#F5EFE3" opacity="0.83"/>\n  <circle cx="750" cy="190" r="1.8" fill="#F5EFE3" opacity="0.35"/>\n  <circle cx="907" cy="287" r="2.3" fill="#F5EFE3" opacity="0.47"/>\n  <circle cx="1064" cy="384" r="0.8" fill="#F5EFE3" opacity="0.59"/>\n  <circle cx="1221" cy="481" r="1.3" fill="#F5EFE3" opacity="0.71"/>\n  <circle cx="98" cy="578" r="1.8" fill="#F5EFE3" opacity="0.83"/>\n  <circle cx="255" cy="675" r="2.3" fill="#F5EFE3" opacity="0.35"/>\n  <circle cx="412" cy="772" r="0.8" fill="#F5EFE3" opacity="0.47"/>\n  <circle cx="569" cy="869" r="1.3" fill="#F5EFE3" opacity="0.59"/>\n  <circle cx="726" cy="966" r="1.8" fill="#F5EFE3" opacity="0.71"/>\n  <circle cx="883" cy="1063" r="2.3" fill="#F5EFE3" opacity="0.83"/>
  <circle cx="980" cy="220" r="48" fill="#F5EFE3" opacity="0.85"/>
  <circle cx="1005" cy="210" r="48" fill="#0B1226"/>
</svg>